HIERARCHY
ROOT Hips
{
	OFFSET 0.000000 0.000000 0.000000
	CHANNELS 6 Xposition Yposition Zposition Zrotation Yrotation Xrotation 
	JOINT LowerBack
	{
		OFFSET 0.000000 0.000000 0.000000
		CHANNELS 3 Zrotation Yrotation Xrotation
		JOINT Spine
		{
			OFFSET 0.028270 2.035590 -0.193380
			CHANNELS 3 Zrotation Yrotation Xrotation
			JOINT Spine1
			{
				OFFSET 0.056720 2.048850 -0.042750
				CHANNELS 3 Zrotation Yrotation Xrotation
				JOINT Neck
				{
					OFFSET 0.000000 0.000000 0.000000
					CHANNELS 3 Zrotation Yrotation Xrotation
					JOINT Neck1
					{
						OFFSET -0.054170 1.746240 0.172020
						CHANNELS 3 Zrotation Yrotation Xrotation
						JOINT Head
						{
							OFFSET 0.104070 1.761360 -0.123970
							CHANNELS 3 Zrotation Yrotation Xrotation
							End Site
							{
								OFFSET 0.000000 0.000000 0.000000
							}
						}
					}
				}
				JOINT LeftShoulder
				{
					OFFSET 0.000000 0.000000 0.000000
					CHANNELS 3 Zrotation Yrotation Xrotation
					JOINT LeftArm
					{
						OFFSET 3.362410 1.200890 -0.311210
						CHANNELS 3 Zrotation Yrotation Xrotation
						JOINT LeftForeArm
						{
							OFFSET 4.983000 -0.000000 -0.000000
							CHANNELS 3 Zrotation Yrotation Xrotation
							JOINT LeftHand
							{
								OFFSET 3.483560 -0.000000 -0.000000
								CHANNELS 3 Zrotation Yrotation Xrotation
								JOINT LeftFingerBase
								{
									OFFSET 0.000000 0.000000 0.000000
									CHANNELS 3 Zrotation Yrotation Xrotation
									JOINT LeftHandIndex1
									{
										OFFSET 0.715260 -0.000000 -0.000000
										CHANNELS 3 Zrotation Yrotation Xrotation
										End Site
										{
											OFFSET 0.000000 0.000000 0.000000
										}
									}
								}
								JOINT LThumb
								{
									OFFSET 0.000000 0.000000 0.000000
									CHANNELS 3 Zrotation Yrotation Xrotation
									End Site
									{
										OFFSET 0.000000 0.000000 0.000000
									}
								}
							}
						}
					}
				}
				JOINT RightShoulder
				{
					OFFSET 0.000000 0.000000 0.000000
					CHANNELS 3 Zrotation Yrotation Xrotation
					JOINT RightArm
					{
						OFFSET -3.136600 1.374050 -0.404650
						CHANNELS 3 Zrotation Yrotation Xrotation
						JOINT RightForeArm
						{
							OFFSET -5.241900 -0.000000 -0.000000
							CHANNELS 3 Zrotation Yrotation Xrotation
							JOINT RightHand
							{
								OFFSET -3.444170 -0.000000 -0.000000
								CHANNELS 3 Zrotation Yrotation Xrotation
								JOINT RightFingerBase
								{
									OFFSET 0.000000 0.000000 0.000000
									CHANNELS 3 Zrotation Yrotation Xrotation
									JOINT RightHandIndex1
									{
										OFFSET -0.622530 -0.000000 -0.000000
										CHANNELS 3 Zrotation Yrotation Xrotation
										End Site
										{
											OFFSET 0.000000 0.000000 0.000000
										}
									}
								}
								JOINT RThumb
								{
									OFFSET 0.000000 0.000000 0.000000
									CHANNELS 3 Zrotation Yrotation Xrotation
									End Site
									{
										OFFSET 0.000000 0.000000 0.000000
									}
								}
							}
						}
					}
				}
			}
		}
	}
}
}
MOTION
Frames: 9
Frame Time: 0.008333
4.871992 16.857470 -5.739975 177.975051 29.030702 -172.252003 -6.154795 -0.294479 -1.022945 -2.368198 -0.015983 -3.309249 -7.673206 -0.138946 0.269296 11.062205 -2.406130 -6.532603 -4.531826 -0.355445 0.203465 0.000000 0.000000 0.000000 -5.979254 9.378346 1.826763 -64.498676 4.798076 9.113213 -3.633643 -18.495949 -0.003946 1.151868 4.634499 0.049305 -0.057292 -0.023650 -0.000000 0.000000 0.000000 0.000000 0.000000 0.000000 0.000000 20.707948 1.794794 1.872358 54.527057 12.196875 -5.165604 3.336443 24.714655 0.013817 1.465021 6.401495 0.079456 0.083731 -0.117292 -0.000000 0.000000 0.000000 0.000000 0.000000 0.000000 0.000000 
4.927197 16.876959 -5.887124 177.652201 28.611560 -172.479275 -6.541398 -0.343986 -1.100129 -2.448420 -0.041919 -3.320312 -7.696261 -0.165277 0.270787 11.141816 -2.626659 -6.548046 -4.534523 -0.356160 0.199207 0.000000 0.000000 0.000000 -5.797324 9.267818 1.812064 -64.558861 4.752780 8.743858 -3.664385 -17.999726 -0.004032 1.205325 4.681944 0.052000 -0.057740 -0.022908 -0.000000 0.000000 0.000000 0.000000 0.000000 0.000000 0.000000 20.819085 1.577502 1.801078 55.376496 11.756820 -4.971011 3.318493 24.894613 0.013773 1.590700 6.365046 0.086260 0.081802 -0.115734 -0.000000 0.000000 0.000000 0.000000 0.000000 0.000000 0.000000 
4.977898 16.896695 -6.032944 177.371132 28.211626 -172.658172 -6.864565 -0.389683 -1.177448 -2.514974 -0.067731 -3.332124 -7.713896 -0.191570 0.268777 11.194457 -2.824887 -6.564422 -4.537297 -0.356816 0.194813 0.000000 0.000000 0.000000 -5.647200 9.152713 1.802276 -64.628759 4.669436 8.404181 -3.691203 -17.562527 -0.004123 1.249710 4.729709 0.054399 -0.058160 -0.021846 -0.000000 0.000000 0.000000 0.000000 0.000000 0.000000 0.000000 20.902014 1.382901 1.736708 56.196169 11.327347 -4.783123 3.303937 25.048977 0.013748 1.732022 6.319615 0.093663 0.079917 -0.114357 -0.000000 0.000000 0.000000 0.000000 0.000000 0.000000 0.000000 
5.023959 16.916426 -6.177077 177.140249 27.834762 -172.785435 -7.118340 -0.432552 -1.254820 -2.566640 -0.094813 -3.344696 -7.727807 -0.219299 0.263672 11.222967 -2.987146 -6.581268 -4.541054 -0.357459 0.190337 0.000000 0.000000 0.000000 -5.530957 9.050338 1.798447 -64.702095 4.535978 8.131089 -3.713575 -17.190213 -0.004224 1.282311 4.775408 0.056198 -0.058565 -0.020450 -0.000000 0.000000 0.000000 0.000000 0.000000 0.000000 0.000000 20.961151 1.225596 1.678755 56.980458 10.903568 -4.610404 3.292873 25.182935 0.013748 1.897112 6.262462 0.102165 0.078000 -0.113102 -0.000000 0.000000 0.000000 0.000000 0.000000 0.000000 0.000000 
5.066291 16.935860 -6.318496 176.936700 27.483245 -172.889602 -7.329104 -0.474659 -1.315476 -2.608891 -0.123474 -3.355556 -7.739892 -0.248741 0.252159 11.239302 -3.134456 -6.597914 -4.546903 -0.358180 0.185759 0.000000 0.000000 0.000000 -5.434359 8.918480 1.799988 -64.779660 4.403331 7.893942 -3.731091 -16.923802 -0.004321 1.300698 4.820583 0.057500 -0.058884 -0.018976 -0.000000 0.000000 0.000000 0.000000 0.000000 0.000000 0.000000 21.018374 1.080136 1.632105 57.718605 10.526994 -4.401406 3.285406 25.272528 0.013765 2.067702 6.202967 0.110663 0.076183 -0.111988 -0.000000 0.000000 0.000000 0.000000 0.000000 0.000000 0.000000 
5.104779 16.955026 -6.457325 176.779320 27.160240 -172.956403 -7.479654 -0.516068 -1.367279 -2.638252 -0.155044 -3.365726 -7.751477 -0.281312 0.236916 11.242821 -3.240091 -6.613463 -4.555166 -0.358976 0.181309 0.000000 0.000000 0.000000 -5.363769 8.802557 1.807952 -64.851816 4.227245 7.760215 -3.743630 -16.741855 -0.004417 1.305102 4.859473 0.058203 -0.059186 -0.017287 -0.000000 0.000000 0.000000 0.000000 0.000000 0.000000 0.000000 21.068763 0.976514 1.592171 58.415873 10.166412 -4.201521 3.280845 25.338899 0.013799 2.260011 6.134014 0.120061 0.074285 -0.110933 -0.000000 0.000000 0.000000 0.000000 0.000000 0.000000 0.000000 
5.140043 16.973866 -6.593241 176.662407 26.866415 -172.995520 -7.577654 -0.557541 -1.406390 -2.656414 -0.189855 -3.374709 -7.763778 -0.317341 0.216670 11.239718 -3.316307 -6.626793 -4.566221 -0.359900 0.177326 0.000000 0.000000 0.000000 -5.313855 8.681081 1.821313 -64.916281 4.036846 7.717229 -3.750856 -16.663756 -0.004504 1.296157 4.891617 0.058207 -0.059435 -0.015543 -0.000000 0.000000 0.000000 0.000000 0.000000 0.000000 0.000000 21.122259 0.899825 1.560430 59.068950 9.840804 -3.987602 3.279207 25.370941 0.013843 2.461228 6.061701 0.129557 0.072395 -0.109937 -0.000000 0.000000 0.000000 0.000000 0.000000 0.000000 0.000000 
5.172502 16.992483 -6.726119 176.582974 26.600211 -173.016010 -7.630843 -0.599575 -1.428189 -2.665141 -0.227970 -3.381545 -7.777906 -0.356854 0.191799 11.234597 -3.362510 -6.636807 -4.580059 -0.360947 0.173993 0.000000 0.000000 0.000000 -5.277712 8.557698 1.839775 -64.969908 3.826785 7.778436 -3.753083 -16.682602 -0.004578 1.277141 4.914004 0.057614 -0.059655 -0.013756 -0.000000 0.000000 0.000000 0.000000 0.000000 0.000000 0.000000 21.183162 0.850095 1.535458 59.683217 9.547285 -3.768926 3.279382 25.372679 0.013890 2.667715 5.986545 0.139152 0.070475 -0.108987 -0.000000 0.000000 0.000000 0.000000 0.000000 0.000000 0.000000 
5.202720 17.010942 -6.855968 176.537638 26.358819 -173.021996 -7.642100 -0.642597 -1.433139 -2.665083 -0.269684 -3.386089 -7.794064 -0.400100 0.163122 11.229880 -3.383960 -6.642730 -4.596374 -0.362109 0.171577 0.000000 0.000000 0.000000 -5.252378 8.430255 1.862295 -65.010142 3.599193 7.944603 -3.750517 -16.793435 -0.004636 1.251840 4.924192 0.056622 -0.059859 -0.011966 -0.000000 0.000000 0.000000 0.000000 0.000000 0.000000 0.000000 21.253084 0.820681 1.515961 60.262521 9.286304 -3.547745 3.280825 25.344932 0.013928 2.871901 5.911352 0.148246 0.068553 -0.108074 -0.000000 0.000000 0.000000 0.000000 0.000000 0.000000 0.000000 
